<svg width="81" height="80" viewBox="0 0 81 80" fill="none" xmlns="http://www.w3.org/2000/svg">
<path d="M40.5927 24.4516C31.8001 24.4516 24.7041 31.5476 24.7041 40.3402C24.7041 49.1328 31.8001 56.2289 40.5927 56.2289C49.3853 56.2289 56.4814 49.1328 56.4814 40.3402C56.4814 31.5476 49.3853 24.4516 40.5927 24.4516ZM40.5927 50.6667C34.9066 50.6667 30.2663 46.0264 30.2663 40.3402C30.2663 34.6541 34.9066 30.0138 40.5927 30.0138C46.2789 30.0138 50.9192 34.6541 50.9192 40.3402C50.9192 46.0264 46.2789 50.6667 40.5927 50.6667ZM57.1321 20.0979C55.0792 20.0979 53.4214 21.7557 53.4214 23.8086C53.4214 25.8615 55.0792 27.5193 57.1321 27.5193C59.185 27.5193 60.8428 25.8692 60.8428 23.8086C60.8434 23.3211 60.7479 22.8383 60.5616 22.3878C60.3754 21.9374 60.102 21.528 59.7574 21.1834C59.4127 20.8387 59.0034 20.5654 58.5529 20.3791C58.1024 20.1928 57.6196 20.0973 57.1321 20.0979V20.0979ZM71.5644 40.3402C71.5644 36.064 71.6031 31.8265 71.363 27.558C71.1228 22.6001 69.9918 18.1999 66.3663 14.5744C62.733 10.9412 58.3406 9.81789 53.3827 9.57774C49.1065 9.33759 44.869 9.37633 40.6005 9.37633C36.3243 9.37633 32.0868 9.33759 27.8183 9.57774C22.8603 9.81789 18.4602 10.9489 14.8347 14.5744C11.2014 18.2077 10.0781 22.6001 9.838 27.558C9.59785 31.8343 9.63658 36.0718 9.63658 40.3402C9.63658 44.6087 9.59785 48.8539 9.838 53.1224C10.0781 58.0804 11.2092 62.4805 14.8347 66.106C18.4679 69.7393 22.8603 70.8626 27.8183 71.1027C32.0945 71.3429 36.332 71.3041 40.6005 71.3041C44.8767 71.3041 49.1142 71.3429 53.3827 71.1027C58.3406 70.8626 62.7408 69.7315 66.3663 66.106C69.9995 62.4728 71.1228 58.0804 71.363 53.1224C71.6109 48.8539 71.5644 44.6165 71.5644 40.3402V40.3402ZM64.7472 58.6072C64.1817 60.0171 63.5 61.0706 62.4077 62.1552C61.3154 63.2475 60.2696 63.9292 58.8597 64.4947C54.7848 66.1138 45.1091 65.7497 40.5927 65.7497C36.0764 65.7497 26.3929 66.1138 22.3181 64.5025C20.9082 63.9369 19.8546 63.2552 18.77 62.1629C17.6777 61.0706 16.996 60.0248 16.4305 58.6149C14.8192 54.5323 15.1833 44.8566 15.1833 40.3402C15.1833 35.8239 14.8192 26.1404 16.4305 22.0656C16.996 20.6556 17.6777 19.6021 18.77 18.5175C19.8623 17.433 20.9082 16.7435 22.3181 16.178C26.3929 14.5667 36.0764 14.9308 40.5927 14.9308C45.1091 14.9308 54.7926 14.5667 58.8674 16.178C60.2773 16.7435 61.3309 17.4252 62.4154 18.5175C63.5077 19.6098 64.1894 20.6556 64.755 22.0656C66.3663 26.1404 66.0022 35.8239 66.0022 40.3402C66.0022 44.8566 66.3663 54.5323 64.7472 58.6072Z" fill="#E8CF36"/>
</svg>
