<svg width="627" height="609" viewBox="0 0 627 609" fill="none" xmlns="http://www.w3.org/2000/svg">
<path d="M548.362 40.1936C558.743 40.1936 568.699 44.381 576.039 51.8347C583.379 59.2884 587.503 69.3978 587.503 79.939V397.902C587.503 408.443 583.379 418.552 576.039 426.006C568.699 433.46 558.743 437.647 548.362 437.647H173.163C152.403 437.652 132.496 446.03 117.819 460.938L39.5378 540.429V79.939C39.5378 69.3978 43.6615 59.2884 51.0018 51.8347C58.342 44.381 68.2975 40.1936 78.6782 40.1936H548.362ZM78.6782 0.448242C57.9168 0.448242 38.0058 8.82313 23.3254 23.7305C8.64487 38.6379 0.397461 58.8567 0.397461 79.939L0.397461 588.401C0.398283 592.334 1.5479 596.177 3.7008 599.446C5.8537 602.714 8.91311 605.261 12.4918 606.763C16.0705 608.265 20.0076 608.655 23.8048 607.884C27.602 607.113 31.0886 605.215 33.8233 602.431L145.491 489.038C152.829 481.584 162.783 477.395 173.163 477.393H548.362C569.124 477.393 589.035 469.018 603.715 454.11C618.396 439.203 626.643 418.984 626.643 397.902V79.939C626.643 58.8567 618.396 38.6379 603.715 23.7305C589.035 8.82313 569.124 0.448242 548.362 0.448242L78.6782 0.448242Z" fill="#E8CF36"/>
</svg>
