<svg width="570" height="582" viewBox="0 0 570 582" fill="none" xmlns="http://www.w3.org/2000/svg">
<path d="M535.279 386.913C503.537 382.915 472.019 377.246 440.85 369.929C433.24 367.333 425.103 366.786 417.225 368.341C409.348 369.895 401.997 373.499 395.884 378.804C387.94 387.066 365.007 410.171 341.175 434.041C255.787 391.191 186.732 320.643 144.822 233.444C168.055 209.115 189.788 185.857 198.632 177.748C203.828 171.507 207.358 164.003 208.881 155.961C210.404 147.92 209.868 139.613 207.325 131.845C200.149 99.9766 194.595 67.7501 190.688 35.295C190.269 31.1621 189.03 27.1595 187.047 23.5312C185.064 19.9029 182.377 16.7249 179.152 14.1909C175.926 11.6569 172.229 9.81994 168.285 8.79205C164.342 7.76416 160.234 7.56685 156.213 8.21213H28.5093C23.238 8.69794 18.3036 11.0666 14.5748 14.9011C10.846 18.7356 8.56187 23.79 8.1246 29.1746C-0.119213 146.84 64.1825 272.767 77.2227 296.943V297.861L79.0214 301.38C125.702 384.028 192.914 452.641 273.875 500.294V500.294L280.47 504.12C310.448 520.339 429.608 581.543 540.975 573.127C546.303 572.75 551.325 570.449 555.143 566.636C558.96 562.823 561.323 557.747 561.809 552.318V422.106C562.441 418.001 562.248 413.808 561.241 409.783C560.234 405.757 558.435 401.982 555.952 398.69C553.47 395.397 550.357 392.655 546.803 390.63C543.248 388.605 539.328 387.341 535.279 386.913Z" fill="#E8CF36" stroke="#131313" stroke-width="14.2092" stroke-linecap="round" stroke-linejoin="round"/>
</svg>
