<svg width="2808" height="99" viewBox="0 0 2808 99" fill="none" xmlns="http://www.w3.org/2000/svg">
<rect x="1.94414" y="1.56389" width="2804.35" height="96.2867" rx="48.1433" stroke="#8D8B8B" stroke-width="2.18833"/>
<path d="M113.165 41.9197C113.033 40.5908 112.446 39.534 111.405 38.7491C110.364 37.9642 109.054 37.5718 107.477 37.5718C106.366 37.5718 105.386 37.7622 104.539 38.1429C103.7 38.5237 103.04 39.0521 102.558 39.7282C102.084 40.3965 101.847 41.1581 101.847 42.0129C101.847 42.6424 101.983 43.1941 102.255 43.6682C102.527 44.1422 102.892 44.5502 103.35 44.8921C103.817 45.2263 104.33 45.5138 104.889 45.7547C105.456 45.9956 106.028 46.1976 106.603 46.3608L109.12 47.0835C109.882 47.2934 110.644 47.5615 111.405 47.8879C112.167 48.2142 112.862 48.6261 113.492 49.1235C114.129 49.613 114.638 50.2153 115.019 50.9302C115.407 51.6374 115.602 52.4883 115.602 53.483C115.602 54.7575 115.271 55.9037 114.611 56.9217C113.95 57.9397 113.002 58.7479 111.767 59.3463C110.531 59.9369 109.051 60.2322 107.325 60.2322C105.701 60.2322 104.291 59.9641 103.094 59.4279C101.897 58.8839 100.957 58.134 100.273 57.1782C99.5892 56.2223 99.2046 55.115 99.1191 53.856H101.357C101.435 54.7963 101.746 55.5929 102.29 56.2456C102.834 56.8984 103.541 57.3958 104.411 57.7377C105.282 58.0718 106.253 58.2389 107.325 58.2389C108.514 58.2389 109.571 58.0408 110.496 57.6444C111.428 57.2403 112.159 56.6808 112.687 55.9659C113.224 55.2432 113.492 54.4039 113.492 53.4481C113.492 52.6399 113.282 51.9638 112.862 51.4198C112.443 50.8681 111.856 50.4057 111.102 50.0327C110.356 49.6597 109.49 49.3294 108.503 49.0419L105.647 48.2026C103.774 47.6431 102.321 46.8698 101.287 45.8829C100.254 44.896 99.7369 43.6371 99.7369 42.1062C99.7369 40.824 100.079 39.6971 100.763 38.7258C101.454 37.7466 102.387 36.985 103.56 36.4411C104.741 35.8893 106.066 35.6134 107.535 35.6134C109.019 35.6134 110.333 35.8854 111.475 36.4294C112.617 36.9734 113.523 37.7233 114.191 38.6791C114.867 39.6272 115.229 40.7074 115.275 41.9197H113.165ZM127.654 60.1972C125.984 60.1972 124.538 59.8087 123.318 59.0316C122.098 58.2467 121.154 57.1626 120.486 55.7794C119.825 54.3884 119.495 52.7875 119.495 50.9769C119.495 49.174 119.825 47.5731 120.486 46.1743C121.154 44.7678 122.075 43.6682 123.248 42.8755C124.429 42.0751 125.793 41.6749 127.34 41.6749C128.311 41.6749 129.248 41.8536 130.149 42.2111C131.05 42.5608 131.859 43.1009 132.574 43.8314C133.296 44.5541 133.867 45.4672 134.287 46.5707C134.707 47.6664 134.917 48.9641 134.917 50.464V51.4897H120.929V49.6597H132.795C132.795 48.5095 132.562 47.476 132.096 46.559C131.637 45.6342 130.996 44.9038 130.172 44.3676C129.356 43.8314 128.412 43.5633 127.34 43.5633C126.205 43.5633 125.207 43.8663 124.344 44.4725C123.481 45.0786 122.805 45.879 122.316 46.8737C121.834 47.8684 121.589 48.9564 121.581 50.1376V51.2333C121.581 52.6554 121.826 53.8988 122.316 54.9634C122.813 56.0203 123.516 56.8401 124.426 57.423C125.335 58.0058 126.411 58.2972 127.654 58.2972C128.502 58.2972 129.244 58.1651 129.881 57.9009C130.526 57.6367 131.066 57.2831 131.501 56.8401C131.944 56.3894 132.278 55.8959 132.504 55.3597L134.474 56.0009C134.202 56.7546 133.755 57.4502 133.133 58.0874C132.519 58.7246 131.75 59.2375 130.825 59.6261C129.908 60.0068 128.851 60.1972 127.654 60.1972ZM144.49 60.2322C143.409 60.2322 142.422 60.0224 141.529 59.6027C140.635 59.1753 139.924 58.5614 139.396 57.761C138.867 56.9528 138.603 55.9737 138.603 54.8235C138.603 53.9376 138.77 53.1916 139.104 52.5855C139.438 51.9793 139.912 51.482 140.526 51.0934C141.14 50.7049 141.867 50.3979 142.706 50.1725C143.545 49.9472 144.47 49.7723 145.48 49.648C146.483 49.5237 147.33 49.4149 148.021 49.3216C148.721 49.2284 149.253 49.0807 149.618 48.8787C149.984 48.6766 150.166 48.3502 150.166 47.8995V47.4799C150.166 46.2598 149.801 45.3001 149.071 44.6007C148.348 43.8935 147.307 43.5399 145.947 43.5399C144.657 43.5399 143.604 43.8236 142.788 44.3909C141.979 44.9582 141.412 45.6265 141.086 46.3958L139.116 45.6848C139.52 44.7056 140.079 43.9246 140.794 43.3418C141.509 42.7512 142.31 42.3277 143.196 42.0712C144.082 41.807 144.979 41.6749 145.888 41.6749C146.572 41.6749 147.283 41.7643 148.021 41.943C148.767 42.1217 149.459 42.4326 150.096 42.8755C150.734 43.3107 151.25 43.9207 151.647 44.7056C152.043 45.4827 152.241 46.4696 152.241 47.6664V59.8242H150.166V56.9917H150.038C149.789 57.5201 149.42 58.033 148.931 58.5303C148.441 59.0277 147.827 59.4357 147.089 59.7543C146.351 60.0729 145.484 60.2322 144.49 60.2322ZM144.769 58.3322C145.873 58.3322 146.829 58.0874 147.637 57.5978C148.445 57.1082 149.067 56.4593 149.502 55.6512C149.945 54.8352 150.166 53.9376 150.166 52.9585V50.3707C150.011 50.5184 149.751 50.6505 149.385 50.767C149.028 50.8836 148.612 50.9885 148.138 51.0818C147.672 51.1672 147.206 51.2411 146.739 51.3032C146.273 51.3654 145.853 51.4198 145.48 51.4664C144.47 51.5908 143.608 51.785 142.893 52.0493C142.178 52.3135 141.63 52.6787 141.249 53.145C140.868 53.6035 140.678 54.1941 140.678 54.9168C140.678 56.0047 141.066 56.8479 141.843 57.4463C142.621 58.0369 143.596 58.3322 144.769 58.3322ZM157.761 59.8242V41.9197H159.777V44.6706H159.929C160.286 43.7692 160.908 43.0426 161.794 42.4908C162.687 41.9313 163.698 41.6516 164.824 41.6516C164.995 41.6516 165.186 41.6555 165.396 41.6632C165.605 41.671 165.78 41.6788 165.92 41.6865V43.7964C165.827 43.7808 165.664 43.7575 165.431 43.7264C165.197 43.6954 164.945 43.6798 164.673 43.6798C163.74 43.6798 162.909 43.878 162.178 44.2743C161.456 44.6629 160.885 45.2029 160.465 45.8946C160.045 46.5862 159.835 47.375 159.835 48.2609V59.8242H157.761ZM175.91 60.1972C174.309 60.1972 172.914 59.797 171.725 58.9966C170.544 58.1962 169.627 57.1005 168.974 55.7094C168.321 54.3184 167.995 52.7331 167.995 50.9535C167.995 49.1584 168.325 47.5615 168.986 46.1627C169.654 44.7639 170.579 43.6682 171.76 42.8755C172.941 42.0751 174.313 41.6749 175.875 41.6749C177.072 41.6749 178.156 41.908 179.127 42.3743C180.099 42.8328 180.899 43.4817 181.528 44.3209C182.166 45.1524 182.566 46.1238 182.729 47.2351H180.631C180.413 46.2248 179.889 45.3623 179.057 44.6473C178.233 43.9246 177.184 43.5633 175.91 43.5633C174.768 43.5633 173.757 43.8741 172.879 44.4958C172.001 45.1097 171.313 45.9684 170.816 47.0719C170.326 48.1676 170.082 49.4382 170.082 50.8836C170.082 52.3368 170.322 53.6229 170.804 54.7419C171.286 55.8532 171.962 56.7236 172.833 57.353C173.711 57.9825 174.736 58.2972 175.91 58.2972C176.703 58.2972 177.425 58.1496 178.078 57.8543C178.739 57.5512 179.29 57.1238 179.733 56.572C180.184 56.0203 180.487 55.3636 180.642 54.6021H182.741C182.585 55.6822 182.201 56.6459 181.587 57.4929C180.981 58.3322 180.192 58.9927 179.22 59.4745C178.257 59.9563 177.153 60.1972 175.91 60.1972ZM189.263 48.6339V59.8242H187.188V35.9515H189.263V44.7289H189.449C189.869 43.8042 190.518 43.0659 191.396 42.5142C192.282 41.9624 193.401 41.6865 194.753 41.6865C195.965 41.6865 197.03 41.9352 197.947 42.4326C198.864 42.9299 199.579 43.6643 200.092 44.6357C200.604 45.607 200.861 46.8038 200.861 48.2259V59.8242H198.774V48.3541C198.774 46.8776 198.362 45.7158 197.539 44.8688C196.723 44.014 195.619 43.5866 194.228 43.5866C193.272 43.5866 192.421 43.7886 191.675 44.1927C190.929 44.5968 190.339 45.1796 189.904 45.9412C189.476 46.695 189.263 47.5926 189.263 48.6339ZM222.924 41.9197V43.7264H214.123V41.9197H222.924ZM216.874 59.8242V39.2969C216.874 38.3333 217.096 37.5212 217.539 36.8607C217.989 36.2002 218.576 35.6989 219.299 35.357C220.021 35.0151 220.787 34.8441 221.595 34.8441C222.139 34.8441 222.59 34.8907 222.947 34.984C223.312 35.0695 223.6 35.155 223.81 35.2404L223.204 37.0589C223.048 37.0122 222.858 36.9578 222.632 36.8957C222.407 36.8335 222.123 36.8024 221.782 36.8024C220.88 36.8024 220.185 37.055 219.695 37.5601C219.205 38.0652 218.961 38.7879 218.961 39.7282L218.949 59.8242H216.874ZM233.287 60.1972C231.74 60.1972 230.372 59.8048 229.183 59.0199C228.002 58.235 227.078 57.151 226.409 55.7677C225.741 54.3767 225.407 52.772 225.407 50.9535C225.407 49.1196 225.741 47.5071 226.409 46.1161C227.078 44.7173 228.002 43.6293 229.183 42.8522C230.372 42.0673 231.74 41.6749 233.287 41.6749C234.833 41.6749 236.197 42.0673 237.378 42.8522C238.559 43.6371 239.484 44.725 240.152 46.1161C240.828 47.5071 241.166 49.1196 241.166 50.9535C241.166 52.772 240.832 54.3767 240.164 55.7677C239.496 57.151 238.567 58.235 237.378 59.0199C236.197 59.8048 234.833 60.1972 233.287 60.1972ZM233.287 58.2972C234.53 58.2972 235.583 57.963 236.446 57.2947C237.308 56.6264 237.961 55.7366 238.404 54.6254C238.855 53.5141 239.08 52.2902 239.08 50.9535C239.08 49.6169 238.855 48.3891 238.404 47.2701C237.961 46.151 237.308 45.2535 236.446 44.5774C235.583 43.9013 234.53 43.5633 233.287 43.5633C232.051 43.5633 230.998 43.9013 230.128 44.5774C229.265 45.2535 228.608 46.151 228.158 47.2701C227.715 48.3891 227.493 49.6169 227.493 50.9535C227.493 52.2902 227.715 53.5141 228.158 54.6254C228.608 55.7366 229.265 56.6264 230.128 57.2947C230.99 57.963 232.043 58.2972 233.287 58.2972ZM245.721 59.8242V41.9197H247.738V44.6706H247.889C248.247 43.7692 248.869 43.0426 249.754 42.4908C250.648 41.9313 251.658 41.6516 252.785 41.6516C252.956 41.6516 253.147 41.6555 253.356 41.6632C253.566 41.671 253.741 41.6788 253.881 41.6865V43.7964C253.788 43.7808 253.624 43.7575 253.391 43.7264C253.158 43.6954 252.906 43.6798 252.634 43.6798C251.701 43.6798 250.87 43.878 250.139 44.2743C249.416 44.6629 248.845 45.2029 248.426 45.8946C248.006 46.5862 247.796 47.375 247.796 48.2609V59.8242H245.721ZM283.602 43.4117C283.385 42.6191 283.066 41.8769 282.647 41.1853C282.227 40.4859 281.706 39.8759 281.085 39.3552C280.471 38.8268 279.76 38.4149 278.951 38.1196C278.151 37.8243 277.257 37.6767 276.27 37.6767C274.716 37.6767 273.325 38.0808 272.097 38.889C270.869 39.6971 269.898 40.8628 269.183 42.3859C268.476 43.9091 268.122 45.743 268.122 47.8879C268.122 50.0249 268.48 51.855 269.195 53.3781C269.91 54.9012 270.889 56.0708 272.132 56.8868C273.383 57.6949 274.813 58.099 276.422 58.099C277.891 58.099 279.188 57.7727 280.315 57.1199C281.442 56.4671 282.32 55.5346 282.95 54.3223C283.587 53.11 283.898 51.6685 283.882 49.9977L284.582 50.2192H276.935V48.2609H286.004V50.2192C286.004 52.2552 285.592 54.0153 284.768 55.4996C283.944 56.9839 282.814 58.1301 281.376 58.9383C279.938 59.7465 278.287 60.1506 276.422 60.1506C274.339 60.1506 272.517 59.6494 270.955 58.6469C269.393 57.6367 268.177 56.2146 267.306 54.3806C266.444 52.5388 266.013 50.3746 266.013 47.8879C266.013 46.015 266.261 44.3248 266.759 42.8172C267.256 41.3096 267.959 40.0196 268.868 38.9472C269.785 37.8748 270.869 37.055 272.121 36.4877C273.372 35.9126 274.755 35.6251 276.27 35.6251C277.576 35.6251 278.769 35.831 279.849 36.2429C280.937 36.6548 281.893 37.2221 282.716 37.9448C283.548 38.6597 284.228 39.4873 284.756 40.4276C285.293 41.3602 285.654 42.3549 285.84 43.4117H283.602ZM297.943 60.1972C296.396 60.1972 295.029 59.8048 293.84 59.0199C292.659 58.235 291.734 57.151 291.065 55.7677C290.397 54.3767 290.063 52.772 290.063 50.9535C290.063 49.1196 290.397 47.5071 291.065 46.1161C291.734 44.7173 292.659 43.6293 293.84 42.8522C295.029 42.0673 296.396 41.6749 297.943 41.6749C299.489 41.6749 300.853 42.0673 302.034 42.8522C303.216 43.6371 304.14 44.725 304.809 46.1161C305.485 47.5071 305.823 49.1196 305.823 50.9535C305.823 52.772 305.489 54.3767 304.82 55.7677C304.152 57.151 303.223 58.235 302.034 59.0199C300.853 59.8048 299.489 60.1972 297.943 60.1972ZM297.943 58.2972C299.186 58.2972 300.239 57.963 301.102 57.2947C301.964 56.6264 302.617 55.7366 303.06 54.6254C303.511 53.5141 303.736 52.2902 303.736 50.9535C303.736 49.6169 303.511 48.3891 303.06 47.2701C302.617 46.151 301.964 45.2535 301.102 44.5774C300.239 43.9013 299.186 43.5633 297.943 43.5633C296.707 43.5633 295.654 43.9013 294.784 44.5774C293.921 45.2535 293.265 46.151 292.814 47.2701C292.371 48.3891 292.15 49.6169 292.15 50.9535C292.15 52.2902 292.371 53.5141 292.814 54.6254C293.265 55.7366 293.921 56.6264 294.784 57.2947C295.647 57.963 296.7 58.2972 297.943 58.2972ZM312.452 35.9515V59.8242H310.378V35.9515H312.452ZM324.389 60.1972C322.92 60.1972 321.634 59.8087 320.53 59.0316C319.427 58.2545 318.564 57.1704 317.943 55.7794C317.329 54.3884 317.022 52.7681 317.022 50.9186C317.022 49.0768 317.329 47.4643 317.943 46.0811C318.564 44.6901 319.431 43.6099 320.542 42.8405C321.653 42.0634 322.947 41.6749 324.424 41.6749C325.512 41.6749 326.417 41.8692 327.14 42.2577C327.862 42.6385 328.441 43.1125 328.877 43.6798C329.312 44.2471 329.65 44.7989 329.891 45.3351H330.077V35.9515H332.164V59.8242H330.136V56.5021H329.891C329.65 57.0461 329.308 57.6056 328.865 58.1806C328.422 58.7479 327.835 59.2258 327.105 59.6144C326.382 60.003 325.477 60.1972 324.389 60.1972ZM324.634 58.2972C325.791 58.2972 326.778 57.9825 327.594 57.353C328.41 56.7158 329.032 55.8415 329.459 54.7303C329.895 53.6112 330.112 52.329 330.112 50.8836C330.112 49.4537 329.899 48.1909 329.471 47.0952C329.044 45.9917 328.422 45.1291 327.606 44.5074C326.79 43.878 325.799 43.5633 324.634 43.5633C323.437 43.5633 322.427 43.8896 321.603 44.5424C320.787 45.1874 320.165 46.0617 319.738 47.1651C319.318 48.2686 319.108 49.5081 319.108 50.8836C319.108 52.2746 319.322 53.5297 319.749 54.6487C320.177 55.7677 320.799 56.6575 321.615 57.318C322.438 57.9708 323.445 58.2972 324.634 58.2972ZM347.329 41.9197H349.416V61.5611C349.416 62.5791 349.225 63.4572 348.844 64.1954C348.471 64.9415 347.927 65.5165 347.212 65.9206C346.498 66.3325 345.635 66.5384 344.625 66.5384C344.547 66.5384 344.469 66.5384 344.392 66.5384C344.314 66.5384 344.228 66.5345 344.135 66.5268L344.158 64.5801C344.236 64.5801 344.31 64.5801 344.38 64.5801C344.45 64.5801 344.524 64.5801 344.601 64.5801C345.456 64.5801 346.125 64.3159 346.606 63.7875C347.088 63.259 347.329 62.5169 347.329 61.5611V41.9197ZM348.355 38.8423C347.935 38.8423 347.57 38.6986 347.259 38.411C346.956 38.1157 346.804 37.7622 346.804 37.3503C346.804 36.9384 346.956 36.5887 347.259 36.3012C347.57 36.0059 347.935 35.8582 348.355 35.8582C348.782 35.8582 349.147 36.0059 349.451 36.3012C349.761 36.5887 349.917 36.9384 349.917 37.3503C349.917 37.7622 349.761 38.1157 349.451 38.411C349.147 38.6986 348.782 38.8423 348.355 38.8423ZM362.142 60.1972C360.471 60.1972 359.025 59.8087 357.805 59.0316C356.585 58.2467 355.641 57.1626 354.973 55.7794C354.312 54.3884 353.982 52.7875 353.982 50.9769C353.982 49.174 354.312 47.5731 354.973 46.1743C355.641 44.7678 356.562 43.6682 357.735 42.8755C358.917 42.0751 360.28 41.6749 361.827 41.6749C362.798 41.6749 363.735 41.8536 364.636 42.2111C365.538 42.5608 366.346 43.1009 367.061 43.8314C367.783 44.5541 368.355 45.4672 368.774 46.5707C369.194 47.6664 369.404 48.9641 369.404 50.464V51.4897H355.416V49.6597H367.282C367.282 48.5095 367.049 47.476 366.583 46.559C366.124 45.6342 365.483 44.9038 364.659 44.3676C363.844 43.8314 362.899 43.5633 361.827 43.5633C360.692 43.5633 359.694 43.8663 358.831 44.4725C357.969 45.0786 357.293 45.879 356.803 46.8737C356.321 47.8684 356.076 48.9564 356.069 50.1376V51.2333C356.069 52.6554 356.313 53.8988 356.803 54.9634C357.3 56.0203 358.004 56.8401 358.913 57.423C359.822 58.0058 360.898 58.2972 362.142 58.2972C362.989 58.2972 363.731 58.1651 364.368 57.9009C365.013 57.6367 365.553 57.2831 365.988 56.8401C366.431 56.3894 366.765 55.8959 366.991 55.3597L368.961 56.0009C368.689 56.7546 368.242 57.4502 367.62 58.0874C367.006 58.7246 366.237 59.2375 365.312 59.6261C364.395 60.0068 363.338 60.1972 362.142 60.1972ZM377.951 59.8242L372.542 41.9197H374.734L378.977 56.6886H379.128L383.36 41.9197H385.563L389.759 56.6536H389.922L394.165 41.9197H396.357L390.948 59.8242H388.803L384.56 45.1486H384.339L380.096 59.8242H377.951ZM407.02 60.1972C405.349 60.1972 403.903 59.8087 402.683 59.0316C401.463 58.2467 400.519 57.1626 399.851 55.7794C399.19 54.3884 398.86 52.7875 398.86 50.9769C398.86 49.174 399.19 47.5731 399.851 46.1743C400.519 44.7678 401.44 43.6682 402.613 42.8755C403.795 42.0751 405.158 41.6749 406.705 41.6749C407.676 41.6749 408.613 41.8536 409.514 42.2111C410.416 42.5608 411.224 43.1009 411.939 43.8314C412.661 44.5541 413.233 45.4672 413.652 46.5707C414.072 47.6664 414.282 48.9641 414.282 50.464V51.4897H400.294V49.6597H412.16C412.16 48.5095 411.927 47.476 411.461 46.559C411.002 45.6342 410.361 44.9038 409.537 44.3676C408.721 43.8314 407.777 43.5633 406.705 43.5633C405.57 43.5633 404.572 43.8663 403.709 44.4725C402.847 45.0786 402.17 45.879 401.681 46.8737C401.199 47.8684 400.954 48.9564 400.946 50.1376V51.2333C400.946 52.6554 401.191 53.8988 401.681 54.9634C402.178 56.0203 402.881 56.8401 403.791 57.423C404.7 58.0058 405.776 58.2972 407.02 58.2972C407.867 58.2972 408.609 58.1651 409.246 57.9009C409.891 57.6367 410.431 57.2831 410.866 56.8401C411.309 56.3894 411.643 55.8959 411.869 55.3597L413.839 56.0009C413.567 56.7546 413.12 57.4502 412.498 58.0874C411.884 58.7246 411.115 59.2375 410.19 59.6261C409.273 60.0068 408.216 60.1972 407.02 60.1972ZM420.929 35.9515V59.8242H418.854V35.9515H420.929ZM428.494 35.9515V59.8242H426.419V35.9515H428.494ZM441.223 60.1972C439.552 60.1972 438.107 59.8087 436.887 59.0316C435.667 58.2467 434.722 57.1626 434.054 55.7794C433.394 54.3884 433.063 52.7875 433.063 50.9769C433.063 49.174 433.394 47.5731 434.054 46.1743C434.722 44.7678 435.643 43.6682 436.817 42.8755C437.998 42.0751 439.362 41.6749 440.908 41.6749C441.88 41.6749 442.816 41.8536 443.718 42.2111C444.619 42.5608 445.427 43.1009 446.142 43.8314C446.865 44.5541 447.436 45.4672 447.856 46.5707C448.275 47.6664 448.485 48.9641 448.485 50.464V51.4897H434.497V49.6597H446.364C446.364 48.5095 446.13 47.476 445.664 46.559C445.206 45.6342 444.565 44.9038 443.741 44.3676C442.925 43.8314 441.981 43.5633 440.908 43.5633C439.774 43.5633 438.775 43.8663 437.913 44.4725C437.05 45.0786 436.374 45.879 435.884 46.8737C435.402 47.8684 435.158 48.9564 435.15 50.1376V51.2333C435.15 52.6554 435.395 53.8988 435.884 54.9634C436.382 56.0203 437.085 56.8401 437.994 57.423C438.903 58.0058 439.98 58.2972 441.223 58.2972C442.07 58.2972 442.812 58.1651 443.449 57.9009C444.094 57.6367 444.634 57.2831 445.07 56.8401C445.513 56.3894 445.847 55.8959 446.072 55.3597L448.042 56.0009C447.77 56.7546 447.323 57.4502 446.702 58.0874C446.088 58.7246 445.318 59.2375 444.394 59.6261C443.477 60.0068 442.42 60.1972 441.223 60.1972ZM453.057 59.8242V41.9197H455.074V44.6706H455.225C455.583 43.7692 456.205 43.0426 457.091 42.4908C457.984 41.9313 458.994 41.6516 460.121 41.6516C460.292 41.6516 460.483 41.6555 460.692 41.6632C460.902 41.671 461.077 41.6788 461.217 41.6865V43.7964C461.124 43.7808 460.961 43.7575 460.727 43.7264C460.494 43.6954 460.242 43.6798 459.97 43.6798C459.037 43.6798 458.206 43.878 457.475 44.2743C456.753 44.6629 456.181 45.2029 455.762 45.8946C455.342 46.5862 455.132 47.375 455.132 48.2609V59.8242H453.057ZM466.748 66.5384C466.336 66.5384 465.951 66.4996 465.594 66.4219C465.237 66.3441 464.953 66.2587 464.743 66.1654L465.303 64.3353C466.01 64.5529 466.639 64.6306 467.191 64.5685C467.743 64.5141 468.232 64.2654 468.66 63.8224C469.087 63.3873 469.468 62.7189 469.802 61.8175L470.455 59.9991L463.869 41.9197H466.119L471.434 57.0849H471.597L476.913 41.9197H479.162L471.586 62.6568C471.267 63.5194 470.874 64.2382 470.408 64.8132C469.942 65.3961 469.402 65.8274 468.788 66.1071C468.182 66.3947 467.502 66.5384 466.748 66.5384ZM485.55 56.5604L485.34 57.8076C485.208 58.6469 485.022 59.5717 484.781 60.5819C484.54 61.5921 484.291 62.5519 484.035 63.4611C483.778 64.3703 483.557 65.1008 483.37 65.6525H481.773C481.874 65.1241 482.003 64.4519 482.158 63.6359C482.321 62.82 482.488 61.9146 482.659 60.9199C482.83 59.933 482.986 58.915 483.126 57.8659L483.289 56.5604H485.55ZM507.701 59.8242H500.707V35.9515H508.12C510.397 35.9515 512.344 36.4255 513.96 37.3736C515.584 38.3217 516.828 39.6816 517.69 41.4534C518.553 43.2252 518.984 45.3506 518.984 47.8296C518.984 50.3319 518.541 52.4806 517.655 54.2757C516.777 56.063 515.495 57.4346 513.809 58.3905C512.13 59.3463 510.094 59.8242 507.701 59.8242ZM502.886 57.8659H507.572C509.624 57.8659 511.341 57.4618 512.725 56.6536C514.108 55.8454 515.145 54.6914 515.837 53.1916C516.529 51.6918 516.874 49.9044 516.874 47.8296C516.867 45.7702 516.525 43.9984 515.849 42.5142C515.18 41.0299 514.186 39.8914 512.864 39.0988C511.551 38.3061 509.927 37.9098 507.992 37.9098H502.886V57.8659ZM523.86 59.8242V41.9197H525.946V59.8242H523.86ZM524.92 38.8423C524.493 38.8423 524.128 38.6986 523.825 38.411C523.522 38.1157 523.37 37.7622 523.37 37.3503C523.37 36.9384 523.522 36.5887 523.825 36.3012C524.128 36.0059 524.493 35.8582 524.92 35.8582C525.348 35.8582 525.713 36.0059 526.016 36.3012C526.319 36.5887 526.471 36.9384 526.471 37.3503C526.471 37.7622 526.319 38.1157 526.016 38.411C525.713 38.6986 525.348 38.8423 524.92 38.8423ZM536.434 60.2322C535.354 60.2322 534.367 60.0224 533.473 59.6027C532.58 59.1753 531.869 58.5614 531.34 57.761C530.812 56.9528 530.548 55.9737 530.548 54.8235C530.548 53.9376 530.715 53.1916 531.049 52.5855C531.383 51.9793 531.857 51.482 532.471 51.0934C533.085 50.7049 533.811 50.3979 534.651 50.1725C535.49 49.9472 536.415 49.7723 537.425 49.648C538.427 49.5237 539.274 49.4149 539.966 49.3216C540.665 49.2284 541.198 49.0807 541.563 48.8787C541.928 48.6766 542.111 48.3502 542.111 47.8995V47.4799C542.111 46.2598 541.746 45.3001 541.015 44.6007C540.292 43.8935 539.251 43.5399 537.891 43.5399C536.601 43.5399 535.548 43.8236 534.732 44.3909C533.924 44.9582 533.357 45.6265 533.03 46.3958L531.06 45.6848C531.465 44.7056 532.024 43.9246 532.739 43.3418C533.454 42.7512 534.254 42.3277 535.14 42.0712C536.026 41.807 536.924 41.6749 537.833 41.6749C538.517 41.6749 539.228 41.7643 539.966 41.943C540.712 42.1217 541.404 42.4326 542.041 42.8755C542.678 43.3107 543.195 43.9207 543.591 44.7056C543.988 45.4827 544.186 46.4696 544.186 47.6664V59.8242H542.111V56.9917H541.983C541.734 57.5201 541.365 58.033 540.875 58.5303C540.386 59.0277 539.772 59.4357 539.034 59.7543C538.295 60.0729 537.429 60.2322 536.434 60.2322ZM536.714 58.3322C537.817 58.3322 538.773 58.0874 539.581 57.5978C540.39 57.1082 541.011 56.4593 541.446 55.6512C541.889 54.8352 542.111 53.9376 542.111 52.9585V50.3707C541.955 50.5184 541.695 50.6505 541.33 50.767C540.972 50.8836 540.557 50.9885 540.083 51.0818C539.616 51.1672 539.15 51.2411 538.684 51.3032C538.218 51.3654 537.798 51.4198 537.425 51.4664C536.415 51.5908 535.552 51.785 534.837 52.0493C534.122 52.3135 533.574 52.6787 533.194 53.145C532.813 53.6035 532.622 54.1941 532.622 54.9168C532.622 56.0047 533.011 56.8479 533.788 57.4463C534.565 58.0369 535.54 58.3322 536.714 58.3322ZM549.705 59.8242V41.9197H551.722V44.6706H551.908C552.266 43.7459 552.86 43.0193 553.692 42.4908C554.531 41.9546 555.537 41.6865 556.711 41.6865C557.946 41.6865 558.961 41.978 559.753 42.5608C560.554 43.1358 561.152 43.9285 561.548 44.9387H561.7C562.104 43.944 562.761 43.1553 563.67 42.5724C564.587 41.9818 565.698 41.6865 567.004 41.6865C568.667 41.6865 569.98 42.2111 570.944 43.2602C571.907 44.3015 572.389 45.8246 572.389 47.8296V59.8242H570.314V47.8296C570.314 46.4152 569.953 45.3545 569.23 44.6473C568.507 43.9402 567.555 43.5866 566.374 43.5866C565.006 43.5866 563.953 44.0062 563.215 44.8455C562.477 45.6848 562.108 46.7494 562.108 48.0394V59.8242H559.986V47.6431C559.986 46.4308 559.648 45.4516 558.972 44.7056C558.296 43.9596 557.344 43.5866 556.116 43.5866C555.293 43.5866 554.55 43.7886 553.89 44.1927C553.237 44.5968 552.72 45.1602 552.34 45.8829C551.967 46.5979 551.78 47.4216 551.78 48.3541V59.8242H549.705ZM584.841 60.1972C583.295 60.1972 581.927 59.8048 580.738 59.0199C579.557 58.235 578.632 57.151 577.964 55.7677C577.295 54.3767 576.961 52.772 576.961 50.9535C576.961 49.1196 577.295 47.5071 577.964 46.1161C578.632 44.7173 579.557 43.6293 580.738 42.8522C581.927 42.0673 583.295 41.6749 584.841 41.6749C586.388 41.6749 587.751 42.0673 588.933 42.8522C590.114 43.6371 591.039 44.725 591.707 46.1161C592.383 47.5071 592.721 49.1196 592.721 50.9535C592.721 52.772 592.387 54.3767 591.718 55.7677C591.05 57.151 590.122 58.235 588.933 59.0199C587.751 59.8048 586.388 60.1972 584.841 60.1972ZM584.841 58.2972C586.084 58.2972 587.137 57.963 588 57.2947C588.863 56.6264 589.515 55.7366 589.958 54.6254C590.409 53.5141 590.634 52.2902 590.634 50.9535C590.634 49.6169 590.409 48.3891 589.958 47.2701C589.515 46.151 588.863 45.2535 588 44.5774C587.137 43.9013 586.084 43.5633 584.841 43.5633C583.605 43.5633 582.553 43.9013 581.682 44.5774C580.82 45.2535 580.163 46.151 579.712 47.2701C579.269 48.3891 579.048 49.6169 579.048 50.9535C579.048 52.2902 579.269 53.5141 579.712 54.6254C580.163 55.7366 580.82 56.6264 581.682 57.2947C582.545 57.963 583.598 58.2972 584.841 58.2972ZM599.351 48.6339V59.8242H597.276V41.9197H599.292V44.7289H599.479C599.899 43.8119 600.551 43.0776 601.437 42.5258C602.331 41.9663 603.434 41.6865 604.748 41.6865C605.952 41.6865 607.009 41.9391 607.918 42.4442C608.835 42.9416 609.546 43.6759 610.051 44.6473C610.564 45.6187 610.821 46.8116 610.821 48.2259V59.8242H608.746V48.3541C608.746 46.8854 608.334 45.7236 607.51 44.8688C606.694 44.014 605.599 43.5866 604.223 43.5866C603.283 43.5866 602.447 43.7886 601.717 44.1927C600.986 44.5968 600.408 45.1796 599.98 45.9412C599.56 46.695 599.351 47.5926 599.351 48.6339ZM622.731 60.1972C621.262 60.1972 619.976 59.8087 618.873 59.0316C617.769 58.2545 616.907 57.1704 616.285 55.7794C615.671 54.3884 615.364 52.7681 615.364 50.9186C615.364 49.0768 615.671 47.4643 616.285 46.0811C616.907 44.6901 617.773 43.6099 618.884 42.8405C619.996 42.0634 621.289 41.6749 622.766 41.6749C623.854 41.6749 624.759 41.8692 625.482 42.2577C626.205 42.6385 626.784 43.1125 627.219 43.6798C627.654 44.2471 627.992 44.7989 628.233 45.3351H628.419V35.9515H630.506V59.8242H628.478V56.5021H628.233C627.992 57.0461 627.65 57.6056 627.207 58.1806C626.764 58.7479 626.177 59.2258 625.447 59.6144C624.724 60.003 623.819 60.1972 622.731 60.1972ZM622.976 58.2972C624.134 58.2972 625.121 57.9825 625.937 57.353C626.752 56.7158 627.374 55.8415 627.802 54.7303C628.237 53.6112 628.454 52.329 628.454 50.8836C628.454 49.4537 628.241 48.1909 627.813 47.0952C627.386 45.9917 626.764 45.1291 625.948 44.5074C625.132 43.878 624.141 43.5633 622.976 43.5633C621.779 43.5633 620.769 43.8896 619.945 44.5424C619.129 45.1874 618.507 46.0617 618.08 47.1651C617.66 48.2686 617.45 49.5081 617.45 50.8836C617.45 52.2746 617.664 53.5297 618.092 54.6487C618.519 55.7677 619.141 56.6575 619.957 57.318C620.78 57.9708 621.787 58.2972 622.976 58.2972ZM655.125 35.9515H657.304V53.1683C657.297 54.7225 657.017 56.0203 656.465 57.0616C655.913 58.0952 655.152 58.8684 654.18 59.3813C653.209 59.8942 652.094 60.1506 650.835 60.1506C649.599 60.1506 648.496 59.9214 647.524 59.4629C646.553 59.0044 645.788 58.3594 645.228 57.5279C644.676 56.6964 644.4 55.7211 644.4 54.6021H646.545C646.545 55.3092 646.732 55.9348 647.105 56.4788C647.478 57.015 647.987 57.4346 648.632 57.7377C649.285 58.0408 650.019 58.1923 650.835 58.1923C651.682 58.1923 652.424 58.0136 653.061 57.6561C653.706 57.2986 654.211 56.7508 654.577 56.0125C654.942 55.2665 655.125 54.3184 655.125 53.1683V35.9515ZM670.453 60.1972C668.782 60.1972 667.337 59.8087 666.117 59.0316C664.897 58.2467 663.953 57.1626 663.284 55.7794C662.624 54.3884 662.293 52.7875 662.293 50.9769C662.293 49.174 662.624 47.5731 663.284 46.1743C663.953 44.7678 664.873 43.6682 666.047 42.8755C667.228 42.0751 668.592 41.6749 670.138 41.6749C671.11 41.6749 672.046 41.8536 672.948 42.2111C673.849 42.5608 674.657 43.1009 675.372 43.8314C676.095 44.5541 676.666 45.4672 677.086 46.5707C677.505 47.6664 677.715 48.9641 677.715 50.464V51.4897H663.727V49.6597H675.594C675.594 48.5095 675.36 47.476 674.894 46.559C674.436 45.6342 673.795 44.9038 672.971 44.3676C672.155 43.8314 671.211 43.5633 670.138 43.5633C669.004 43.5633 668.005 43.8663 667.143 44.4725C666.28 45.0786 665.604 45.879 665.114 46.8737C664.632 47.8684 664.388 48.9564 664.38 50.1376V51.2333C664.38 52.6554 664.625 53.8988 665.114 54.9634C665.612 56.0203 666.315 56.8401 667.224 57.423C668.133 58.0058 669.21 58.2972 670.453 58.2972C671.3 58.2972 672.042 58.1651 672.679 57.9009C673.324 57.6367 673.865 57.2831 674.3 56.8401C674.743 56.3894 675.077 55.8959 675.302 55.3597L677.272 56.0009C677 56.7546 676.553 57.4502 675.932 58.0874C675.318 58.7246 674.548 59.2375 673.624 59.6261C672.707 60.0068 671.65 60.1972 670.453 60.1972ZM686.262 59.8242L680.854 41.9197H683.045L687.288 56.6886H687.44L691.671 41.9197H693.874L698.07 56.6536H698.234L702.477 41.9197H704.668L699.259 59.8242H697.115L692.872 45.1486H692.65L688.407 59.8242H686.262ZM715.331 60.1972C713.66 60.1972 712.215 59.8087 710.995 59.0316C709.775 58.2467 708.83 57.1626 708.162 55.7794C707.502 54.3884 707.171 52.7875 707.171 50.9769C707.171 49.174 707.502 47.5731 708.162 46.1743C708.83 44.7678 709.751 43.6682 710.925 42.8755C712.106 42.0751 713.47 41.6749 715.016 41.6749C715.988 41.6749 716.924 41.8536 717.825 42.2111C718.727 42.5608 719.535 43.1009 720.25 43.8314C720.973 44.5541 721.544 45.4672 721.964 46.5707C722.383 47.6664 722.593 48.9641 722.593 50.464V51.4897H708.605V49.6597H720.472C720.472 48.5095 720.238 47.476 719.772 46.559C719.314 45.6342 718.673 44.9038 717.849 44.3676C717.033 43.8314 716.089 43.5633 715.016 43.5633C713.882 43.5633 712.883 43.8663 712.02 44.4725C711.158 45.0786 710.482 45.879 709.992 46.8737C709.51 47.8684 709.266 48.9564 709.258 50.1376V51.2333C709.258 52.6554 709.503 53.8988 709.992 54.9634C710.49 56.0203 711.193 56.8401 712.102 57.423C713.011 58.0058 714.088 58.2972 715.331 58.2972C716.178 58.2972 716.92 58.1651 717.557 57.9009C718.202 57.6367 718.742 57.2831 719.178 56.8401C719.621 56.3894 719.955 55.8959 720.18 55.3597L722.15 56.0009C721.878 56.7546 721.431 57.4502 720.81 58.0874C720.196 58.7246 719.426 59.2375 718.502 59.6261C717.585 60.0068 716.528 60.1972 715.331 60.1972ZM729.24 35.9515V59.8242H727.165V35.9515H729.24ZM736.805 35.9515V59.8242H734.731V35.9515H736.805ZM749.534 60.1972C747.864 60.1972 746.418 59.8087 745.198 59.0316C743.978 58.2467 743.034 57.1626 742.366 55.7794C741.705 54.3884 741.375 52.7875 741.375 50.9769C741.375 49.174 741.705 47.5731 742.366 46.1743C743.034 44.7678 743.955 43.6682 745.128 42.8755C746.309 42.0751 747.673 41.6749 749.22 41.6749C750.191 41.6749 751.127 41.8536 752.029 42.2111C752.93 42.5608 753.738 43.1009 754.453 43.8314C755.176 44.5541 755.747 45.4672 756.167 46.5707C756.587 47.6664 756.796 48.9641 756.796 50.464V51.4897H742.808V49.6597H754.675C754.675 48.5095 754.442 47.476 753.975 46.559C753.517 45.6342 752.876 44.9038 752.052 44.3676C751.236 43.8314 750.292 43.5633 749.22 43.5633C748.085 43.5633 747.086 43.8663 746.224 44.4725C745.361 45.0786 744.685 45.879 744.196 46.8737C743.714 47.8684 743.469 48.9564 743.461 50.1376V51.2333C743.461 52.6554 743.706 53.8988 744.196 54.9634C744.693 56.0203 745.396 56.8401 746.305 57.423C747.215 58.0058 748.291 58.2972 749.534 58.2972C750.381 58.2972 751.124 58.1651 751.761 57.9009C752.406 57.6367 752.946 57.2831 753.381 56.8401C753.824 56.3894 754.158 55.8959 754.383 55.3597L756.353 56.0009C756.081 56.7546 755.635 57.4502 755.013 58.0874C754.399 58.7246 753.63 59.2375 752.705 59.6261C751.788 60.0068 750.731 60.1972 749.534 60.1972ZM761.369 59.8242V41.9197H763.385V44.6706H763.537C763.894 43.7692 764.516 43.0426 765.402 42.4908C766.296 41.9313 767.306 41.6516 768.433 41.6516C768.604 41.6516 768.794 41.6555 769.004 41.6632C769.214 41.671 769.388 41.6788 769.528 41.6865V43.7964C769.435 43.7808 769.272 43.7575 769.039 43.7264C768.806 43.6954 768.553 43.6798 768.281 43.6798C767.349 43.6798 766.517 43.878 765.787 44.2743C765.064 44.6629 764.493 45.2029 764.073 45.8946C763.653 46.5862 763.444 47.375 763.444 48.2609V59.8242H761.369ZM775.059 66.5384C774.647 66.5384 774.263 66.4996 773.905 66.4219C773.548 66.3441 773.264 66.2587 773.054 66.1654L773.614 64.3353C774.321 64.5529 774.951 64.6306 775.502 64.5685C776.054 64.5141 776.544 64.2654 776.971 63.8224C777.398 63.3873 777.779 62.7189 778.113 61.8175L778.766 59.9991L772.18 41.9197H774.43L779.745 57.0849H779.909L785.224 41.9197H787.474L779.897 62.6568C779.578 63.5194 779.186 64.2382 778.72 64.8132C778.253 65.3961 777.713 65.8274 777.099 66.1071C776.493 66.3947 775.813 66.5384 775.059 66.5384ZM805.766 60.2322C804.686 60.2322 803.699 60.0224 802.805 59.6027C801.911 59.1753 801.2 58.5614 800.672 57.761C800.143 56.9528 799.879 55.9737 799.879 54.8235C799.879 53.9376 800.046 53.1916 800.381 52.5855C800.715 51.9793 801.189 51.482 801.803 51.0934C802.417 50.7049 803.143 50.3979 803.982 50.1725C804.822 49.9472 805.746 49.7723 806.757 49.648C807.759 49.5237 808.606 49.4149 809.298 49.3216C809.997 49.2284 810.53 49.0807 810.895 48.8787C811.26 48.6766 811.443 48.3502 811.443 47.8995V47.4799C811.443 46.2598 811.077 45.3001 810.347 44.6007C809.624 43.8935 808.583 43.5399 807.223 43.5399C805.933 43.5399 804.88 43.8236 804.064 44.3909C803.256 44.9582 802.689 45.6265 802.362 46.3958L800.392 45.6848C800.796 44.7056 801.356 43.9246 802.071 43.3418C802.786 42.7512 803.586 42.3277 804.472 42.0712C805.358 41.807 806.255 41.6749 807.165 41.6749C807.849 41.6749 808.56 41.7643 809.298 41.943C810.044 42.1217 810.735 42.4326 811.373 42.8755C812.01 43.3107 812.527 43.9207 812.923 44.7056C813.319 45.4827 813.518 46.4696 813.518 47.6664V59.8242H811.443V56.9917H811.314C811.066 57.5201 810.697 58.033 810.207 58.5303C809.717 59.0277 809.104 59.4357 808.365 59.7543C807.627 60.0729 806.761 60.2322 805.766 60.2322ZM806.046 58.3322C807.149 58.3322 808.105 58.0874 808.913 57.5978C809.721 57.1082 810.343 56.4593 810.778 55.6512C811.221 54.8352 811.443 53.9376 811.443 52.9585V50.3707C811.287 50.5184 811.027 50.6505 810.662 50.767C810.304 50.8836 809.888 50.9885 809.414 51.0818C808.948 51.1672 808.482 51.2411 808.016 51.3032C807.549 51.3654 807.13 51.4198 806.757 51.4664C805.746 51.5908 804.884 51.785 804.169 52.0493C803.454 52.3135 802.906 52.6787 802.525 53.145C802.145 53.6035 801.954 54.1941 801.954 54.9168C801.954 56.0047 802.343 56.8479 803.12 57.4463C803.897 58.0369 804.872 58.3322 806.046 58.3322ZM821.112 48.6339V59.8242H819.037V41.9197H821.054V44.7289H821.24C821.66 43.8119 822.312 43.0776 823.198 42.5258C824.092 41.9663 825.195 41.6865 826.509 41.6865C827.713 41.6865 828.77 41.9391 829.679 42.4442C830.596 42.9416 831.307 43.6759 831.813 44.6473C832.325 45.6187 832.582 46.8116 832.582 48.2259V59.8242H830.507V48.3541C830.507 46.8854 830.095 45.7236 829.271 44.8688C828.455 44.014 827.36 43.5866 825.984 43.5866C825.044 43.5866 824.209 43.7886 823.478 44.1927C822.748 44.5968 822.169 45.1796 821.741 45.9412C821.322 46.695 821.112 47.5926 821.112 48.6339ZM844.492 60.1972C843.023 60.1972 841.737 59.8087 840.634 59.0316C839.53 58.2545 838.668 57.1704 838.046 55.7794C837.432 54.3884 837.125 52.7681 837.125 50.9186C837.125 49.0768 837.432 47.4643 838.046 46.0811C838.668 44.6901 839.534 43.6099 840.645 42.8405C841.757 42.0634 843.05 41.6749 844.527 41.6749C845.615 41.6749 846.52 41.8692 847.243 42.2577C847.966 42.6385 848.545 43.1125 848.98 43.6798C849.415 44.2471 849.753 44.7989 849.994 45.3351H850.18V35.9515H852.267V59.8242H850.239V56.5021H849.994C849.753 57.0461 849.411 57.6056 848.968 58.1806C848.525 58.7479 847.938 59.2258 847.208 59.6144C846.485 60.003 845.58 60.1972 844.492 60.1972ZM844.737 58.2972C845.895 58.2972 846.882 57.9825 847.697 57.353C848.513 56.7158 849.135 55.8415 849.563 54.7303C849.998 53.6112 850.215 52.329 850.215 50.8836C850.215 49.4537 850.002 48.1909 849.574 47.0952C849.147 45.9917 848.525 45.1291 847.709 44.5074C846.893 43.878 845.902 43.5633 844.737 43.5633C843.54 43.5633 842.53 43.8896 841.706 44.5424C840.89 45.1874 840.268 46.0617 839.841 47.1651C839.421 48.2686 839.211 49.5081 839.211 50.8836C839.211 52.2746 839.425 53.5297 839.853 54.6487C840.28 55.7677 840.902 56.6575 841.718 57.318C842.541 57.9708 843.548 58.2972 844.737 58.2972ZM867.409 59.8242V41.9197H869.425V44.6706H869.612C869.969 43.7459 870.564 43.0193 871.395 42.4908C872.235 41.9546 873.241 41.6865 874.414 41.6865C875.65 41.6865 876.664 41.978 877.457 42.5608C878.257 43.1358 878.856 43.9285 879.252 44.9387H879.404C879.808 43.944 880.464 43.1553 881.373 42.5724C882.29 41.9818 883.402 41.6865 884.707 41.6865C886.37 41.6865 887.684 42.2111 888.647 43.2602C889.611 44.3015 890.093 45.8246 890.093 47.8296V59.8242H888.018V47.8296C888.018 46.4152 887.656 45.3545 886.934 44.6473C886.211 43.9402 885.259 43.5866 884.078 43.5866C882.71 43.5866 881.657 44.0062 880.919 44.8455C880.181 45.6848 879.811 46.7494 879.811 48.0394V59.8242H877.69V47.6431C877.69 46.4308 877.352 45.4516 876.676 44.7056C876 43.9596 875.048 43.5866 873.82 43.5866C872.996 43.5866 872.254 43.7886 871.594 44.1927C870.941 44.5968 870.424 45.1602 870.043 45.8829C869.67 46.5979 869.484 47.4216 869.484 48.3541V59.8242H867.409ZM902.545 60.1972C900.998 60.1972 899.631 59.8048 898.442 59.0199C897.26 58.235 896.336 57.151 895.667 55.7677C894.999 54.3767 894.665 52.772 894.665 50.9535C894.665 49.1196 894.999 47.5071 895.667 46.1161C896.336 44.7173 897.26 43.6293 898.442 42.8522C899.631 42.0673 900.998 41.6749 902.545 41.6749C904.091 41.6749 905.455 42.0673 906.636 42.8522C907.817 43.6371 908.742 44.725 909.41 46.1161C910.087 47.5071 910.425 49.1196 910.425 50.9535C910.425 52.772 910.09 54.3767 909.422 55.7677C908.754 57.151 907.825 58.235 906.636 59.0199C905.455 59.8048 904.091 60.1972 902.545 60.1972ZM902.545 58.2972C903.788 58.2972 904.841 57.963 905.704 57.2947C906.566 56.6264 907.219 55.7366 907.662 54.6254C908.113 53.5141 908.338 52.2902 908.338 50.9535C908.338 49.6169 908.113 48.3891 907.662 47.2701C907.219 46.151 906.566 45.2535 905.704 44.5774C904.841 43.9013 903.788 43.5633 902.545 43.5633C901.309 43.5633 900.256 43.9013 899.386 44.5774C898.523 45.2535 897.867 46.151 897.416 47.2701C896.973 48.3891 896.751 49.6169 896.751 50.9535C896.751 52.2902 896.973 53.5141 897.416 54.6254C897.867 55.7366 898.523 56.6264 899.386 57.2947C900.248 57.963 901.301 58.2972 902.545 58.2972ZM914.979 59.8242V41.9197H916.996V44.6706H917.148C917.505 43.7692 918.127 43.0426 919.013 42.4908C919.906 41.9313 920.917 41.6516 922.043 41.6516C922.214 41.6516 922.405 41.6555 922.614 41.6632C922.824 41.671 922.999 41.6788 923.139 41.6865V43.7964C923.046 43.7808 922.883 43.7575 922.649 43.7264C922.416 43.6954 922.164 43.6798 921.892 43.6798C920.959 43.6798 920.128 43.878 919.397 44.2743C918.675 44.6629 918.103 45.2029 917.684 45.8946C917.264 46.5862 917.054 47.375 917.054 48.2609V59.8242H914.979ZM933.374 60.1972C931.703 60.1972 930.257 59.8087 929.037 59.0316C927.817 58.2467 926.873 57.1626 926.205 55.7794C925.544 54.3884 925.214 52.7875 925.214 50.9769C925.214 49.174 925.544 47.5731 926.205 46.1743C926.873 44.7678 927.794 43.6682 928.967 42.8755C930.149 42.0751 931.512 41.6749 933.059 41.6749C934.03 41.6749 934.967 41.8536 935.868 42.2111C936.77 42.5608 937.578 43.1009 938.293 43.8314C939.015 44.5541 939.587 45.4672 940.006 46.5707C940.426 47.6664 940.636 48.9641 940.636 50.464V51.4897H926.648V49.6597H938.514C938.514 48.5095 938.281 47.476 937.815 46.559C937.356 45.6342 936.715 44.9038 935.891 44.3676C935.075 43.8314 934.131 43.5633 933.059 43.5633C931.924 43.5633 930.926 43.8663 930.063 44.4725C929.2 45.0786 928.524 45.879 928.035 46.8737C927.553 47.8684 927.308 48.9564 927.3 50.1376V51.2333C927.3 52.6554 927.545 53.8988 928.035 54.9634C928.532 56.0203 929.235 56.8401 930.145 57.423C931.054 58.0058 932.13 58.2972 933.374 58.2972C934.221 58.2972 934.963 58.1651 935.6 57.9009C936.245 57.6367 936.785 57.2831 937.22 56.8401C937.663 56.3894 937.997 55.8959 938.223 55.3597L940.193 56.0009C939.921 56.7546 939.474 57.4502 938.852 58.0874C938.238 58.7246 937.469 59.2375 936.544 59.6261C935.627 60.0068 934.57 60.1972 933.374 60.1972ZM956.095 59.9991C955.637 59.9991 955.24 59.8359 954.906 59.5095C954.58 59.1753 954.417 58.779 954.417 58.3205C954.417 57.8543 954.58 57.4579 954.906 57.1315C955.24 56.8052 955.637 56.642 956.095 56.642C956.561 56.642 956.958 56.8052 957.284 57.1315C957.611 57.4579 957.774 57.8543 957.774 58.3205C957.774 58.6236 957.696 58.9033 957.541 59.1598C957.393 59.4162 957.191 59.6222 956.934 59.7776C956.686 59.9252 956.406 59.9991 956.095 59.9991ZM964.911 59.9991C964.452 59.9991 964.056 59.8359 963.722 59.5095C963.395 59.1753 963.232 58.779 963.232 58.3205C963.232 57.8543 963.395 57.4579 963.722 57.1315C964.056 56.8052 964.452 56.642 964.911 56.642C965.377 56.642 965.773 56.8052 966.1 57.1315C966.426 57.4579 966.589 57.8543 966.589 58.3205C966.589 58.6236 966.511 58.9033 966.356 59.1598C966.208 59.4162 966.006 59.6222 965.75 59.7776C965.501 59.9252 965.221 59.9991 964.911 59.9991ZM973.726 59.9991C973.267 59.9991 972.871 59.8359 972.537 59.5095C972.21 59.1753 972.047 58.779 972.047 58.3205C972.047 57.8543 972.21 57.4579 972.537 57.1315C972.871 56.8052 973.267 56.642 973.726 56.642C974.192 56.642 974.588 56.8052 974.915 57.1315C975.241 57.4579 975.404 57.8543 975.404 58.3205C975.404 58.6236 975.327 58.9033 975.171 59.1598C975.024 59.4162 974.822 59.6222 974.565 59.7776C974.316 59.9252 974.037 59.9991 973.726 59.9991Z" fill="#CACACA"/>
<path d="M2736.95 64.0685L2729.79 56.8976M2733.76 47.3141C2733.76 50.9112 2732.33 54.3611 2729.79 56.9046C2727.24 59.4482 2723.79 60.8772 2720.2 60.8772C2716.6 60.8772 2713.15 59.4482 2710.61 56.9046C2708.06 54.3611 2706.63 50.9112 2706.63 47.3141C2706.63 43.7169 2708.06 40.2671 2710.61 37.7235C2713.15 35.1799 2716.6 33.751 2720.2 33.751C2723.79 33.751 2727.24 35.1799 2729.79 37.7235C2732.33 40.2671 2733.76 43.7169 2733.76 47.3141V47.3141Z" stroke="#CACACA" stroke-width="3.19132" stroke-linecap="round"/>
</svg>
