<svg width="81" height="80" viewBox="0 0 81 80" fill="none" xmlns="http://www.w3.org/2000/svg">
<path d="M78.9242 16.9938C76.1643 18.2168 73.1994 19.0431 70.0825 19.4166C73.2986 17.4923 75.7046 14.4635 76.8518 10.8956C73.8302 12.6903 70.5233 13.9536 67.0747 14.6306C64.7556 12.1544 61.684 10.5132 58.3366 9.96174C54.9892 9.41024 51.5534 9.97931 48.5625 11.5806C45.5717 13.1819 43.1932 15.7258 41.7963 18.8174C40.3994 21.909 40.0623 25.3752 40.8373 28.6781C34.7148 28.3707 28.7254 26.7793 23.2578 24.0074C17.7902 21.2354 12.9665 17.3447 9.09982 12.5879C7.7777 14.8685 7.01748 17.5128 7.01748 20.3289C7.01601 22.864 7.64031 25.3603 8.83499 27.5963C10.0297 29.8323 11.7578 31.7389 13.8661 33.1468C11.421 33.069 9.02999 32.4084 6.89188 31.2198V31.4181C6.89163 34.9738 8.12156 38.42 10.373 41.1721C12.6244 43.9241 15.7586 45.8125 19.2438 46.5167C16.9756 47.1306 14.5976 47.221 12.2894 46.7812C13.2727 49.8406 15.1882 52.5159 17.7675 54.4327C20.3469 56.3494 23.4611 57.4116 26.6741 57.4705C21.2198 61.7522 14.4838 64.0748 7.54963 64.0645C6.32132 64.0649 5.09405 63.9931 3.87415 63.8497C10.9127 68.3752 19.1061 70.777 27.474 70.7677C55.8003 70.7677 71.2856 47.3067 71.2856 26.9593C71.2856 26.2982 71.2691 25.6306 71.2394 24.9695C74.2515 22.7912 76.8515 20.0939 78.9176 17.0038L78.9242 16.9938V16.9938Z" fill="#E8CF36"/>
</svg>
