<svg width="208" height="199" viewBox="0 0 208 199" fill="none" xmlns="http://www.w3.org/2000/svg">
<path d="M106.086 5.62162L126.67 68.9734C127.916 72.8067 131.488 75.402 135.518 75.402H202.13C204.21 75.402 205.075 78.0634 203.392 79.2859L149.502 118.439C146.241 120.809 144.877 125.008 146.122 128.841L166.707 192.193C167.349 194.171 165.085 195.816 163.403 194.593L109.513 155.44C106.252 153.071 101.836 153.071 98.5757 155.44L44.6854 194.593C43.0028 195.816 40.7389 194.171 41.3816 192.193L61.9658 128.841C63.2113 125.008 61.8469 120.809 58.5861 118.439L4.69586 79.2859C3.01325 78.0634 3.87801 75.402 5.95781 75.402H72.5698C76.6004 75.402 80.1725 72.8067 81.418 68.9734L102.002 5.62163C102.645 3.64359 105.443 3.64361 106.086 5.62162Z" stroke="#E8CF36" stroke-width="7.15655"/>
</svg>
