<svg width="209" height="199" viewBox="0 0 209 199" fill="none" xmlns="http://www.w3.org/2000/svg">
<path d="M98.7515 4.51588C100.465 -0.758844 107.928 -0.758851 109.642 4.51587L130.226 67.8677C130.992 70.2266 133.19 71.8237 135.671 71.8237H202.283C207.829 71.8237 210.135 78.9208 205.648 82.1808L151.758 121.334C149.751 122.792 148.911 125.376 149.678 127.735L170.262 191.087C171.976 196.362 165.939 200.748 161.452 197.488L107.562 158.335C105.555 156.877 102.838 156.877 100.831 158.335L46.941 197.488C42.4541 200.748 36.4169 196.362 38.1308 191.087L58.715 127.735C59.4815 125.376 58.6418 122.792 56.6352 121.334L2.74495 82.1808C-1.742 78.9208 0.563981 71.8237 6.11015 71.8237H72.7222C75.2025 71.8237 77.4007 70.2266 78.1672 67.8677L98.7515 4.51588Z" fill="#E8CF36"/>
</svg>
